<svg width="136" height="24" viewBox="0 0 136 24" fill="none" xmlns="http://www.w3.org/2000/svg">
<path d="M134.54 6.42C134.421 5.94541 134.179 5.51057 133.838 5.15941C133.498 4.80824 133.07 4.55318 132.6 4.42C130.88 4 124 4 124 4C124 4 117.12 4 115.4 4.46C114.929 4.59318 114.502 4.84824 114.161 5.19941C113.82 5.55057 113.578 5.98541 113.46 6.46C113.145 8.20556 112.991 9.97631 113 11.75C112.988 13.537 113.142 15.3213 113.46 17.08C113.591 17.5398 113.838 17.9581 114.178 18.2945C114.518 18.6308 114.938 18.8738 115.4 19C117.12 19.46 124 19.46 124 19.46C124 19.46 130.88 19.46 132.6 19C133.07 18.8668 133.498 18.6118 133.838 18.2606C134.179 17.9094 134.421 17.4746 134.54 17C134.852 15.2676 135.006 13.5103 135 11.75C135.011 9.96295 134.857 8.1787 134.54 6.42Z" stroke="#FFFAF1" stroke-width="2" stroke-linecap="round" stroke-linejoin="round"/>
<path d="M121.75 15.02L127.5 11.75L121.75 8.47998V15.02Z" stroke="#FFFAF1" stroke-width="2" stroke-linecap="round" stroke-linejoin="round"/>
<path d="M74 2H71C69.6739 2 68.4021 2.52678 67.4645 3.46447C66.5268 4.40215 66 5.67392 66 7V10H63V14H66V22H70V14H73L74 10H70V7C70 6.73478 70.1054 6.48043 70.2929 6.29289C70.4804 6.10536 70.7348 6 71 6H74V2Z" stroke="#FFFAF1" stroke-width="2" stroke-linecap="round" stroke-linejoin="round"/>
<path d="M17 2H7C4.23858 2 2 4.23858 2 7V17C2 19.7614 4.23858 22 7 22H17C19.7614 22 22 19.7614 22 17V7C22 4.23858 19.7614 2 17 2Z" stroke="#FFFAF1" stroke-width="2" stroke-linecap="round" stroke-linejoin="round"/>
<path d="M15.9997 11.3701C16.1231 12.2023 15.981 13.0523 15.5935 13.7991C15.206 14.5459 14.5929 15.1515 13.8413 15.5297C13.0898 15.908 12.2382 16.0397 11.4075 15.906C10.5768 15.7723 9.80947 15.3801 9.21455 14.7852C8.61962 14.1903 8.22744 13.4229 8.09377 12.5923C7.96011 11.7616 8.09177 10.91 8.47003 10.1584C8.84829 9.40691 9.45389 8.7938 10.2007 8.4063C10.9475 8.0188 11.7975 7.87665 12.6297 8.00006C13.4786 8.12594 14.2646 8.52152 14.8714 9.12836C15.4782 9.73521 15.8738 10.5211 15.9997 11.3701Z" stroke="#FFFAF1" stroke-width="2" stroke-linecap="round" stroke-linejoin="round"/>
<path d="M17.5 6.5H17.51" stroke="#FFFAF1" stroke-width="2" stroke-linecap="round" stroke-linejoin="round"/>
</svg>
